<svg width="454" height="271" viewBox="0 0 454 271" fill="none" xmlns="http://www.w3.org/2000/svg">
<ellipse opacity="0.2" cx="226.531" cy="248.308" rx="202.688" ry="22.1012" fill="#1E1D25"/>
<path d="M226.773 92.0304V169.782C175.004 170.425 71.4664 169.937 71.4664 162.837C71.4664 153.962 54.4829 114.218 43.4333 98.7831C34.5937 86.4354 45.4796 80.6474 52.0274 79.2969H213.473C221.658 79.2969 225.75 87.7859 226.773 92.0304Z" fill="#DC994F"/>
<ellipse cx="5.11552" cy="4.82331" rx="5.11552" ry="4.82331" transform="matrix(-1 0 0 1 164.172 119.812)" fill="#CB843C"/>
<ellipse cx="5.11552" cy="4.82331" rx="5.11552" ry="4.82331" transform="matrix(-1 0 0 1 113 119.812)" fill="#CB843C"/>
<path d="M43.4333 98.7831C34.5937 86.4354 45.4796 80.6474 52.0274 79.2969H118.892C87.4626 148.598 177.717 164.895 226.773 162.837V169.782C175.004 170.425 71.4664 169.937 71.4664 162.837C71.4664 153.962 54.4829 114.218 43.4333 98.7831Z" fill="#CB843C"/>
<path d="M226.711 92.0304V169.782C278.48 170.425 382.018 169.937 382.018 162.837C382.018 153.962 399.002 114.218 410.051 98.7831C418.891 86.4354 408.005 80.6474 401.457 79.2969H240.011C231.826 79.2969 227.734 87.7859 226.711 92.0304Z" fill="#DC994F"/>
<path d="M226.711 92.0304V169.782C278.48 170.425 382.018 169.937 382.018 162.837C316.403 175.12 198.923 175.609 253.925 79.2969H240.011C231.826 79.2969 227.734 87.7859 226.711 92.0304Z" fill="#CB843C"/>
<ellipse cx="294.428" cy="124.636" rx="5.11552" ry="4.82331" fill="#CB843C"/>
<ellipse cx="345.6" cy="124.636" rx="5.11552" ry="4.82331" fill="#CB843C"/>
<path d="M37.5148 206.45L31.7012 247.013C31.6033 247.696 32.1334 248.308 32.8237 248.308H38.3816C38.8133 248.308 39.2075 248.062 39.3985 247.675L52.4842 221.157C52.6752 220.77 53.0695 220.525 53.5011 220.525H400.155C400.585 220.525 400.977 220.768 401.169 221.151L414.456 247.681C414.649 248.065 415.041 248.308 415.47 248.308H420.816C421.51 248.308 422.042 247.689 421.937 247.002L415.736 206.439C415.651 205.885 415.175 205.477 414.615 205.477H38.6373C38.0732 205.477 37.5948 205.891 37.5148 206.45Z" fill="#89563D"/>
<path d="M43.7906 97.8203C14.489 110.168 2.93473 118.786 0.820312 121.551C28.0349 121.551 28.8533 215.702 42.1537 215.316C55.454 214.93 79.8039 199.496 72.4375 161.874C66.5445 131.776 50.8842 106.631 43.7906 97.8203Z" fill="#D29049"/>
<path d="M41.399 215.714H28.9171C26.9391 215.457 22.8239 213.806 21.7554 209.347C18.4187 195.424 13.3109 171.452 7.43197 152.039C2.7257 128.494 -8.733 118.281 11.9336 118.281C35.5369 118.282 48.7653 203.366 48.7653 209.347C48.7653 214.132 43.8544 215.585 41.399 215.714Z" fill="#E8A660"/>
<path d="M409.366 97.8203C438.667 110.168 450.222 118.786 452.336 121.551C425.121 121.551 424.303 215.702 411.003 215.316C397.702 214.93 373.352 199.496 380.719 161.874C386.612 131.776 402.272 106.631 409.366 97.8203Z" fill="#D29049"/>
<path d="M411.757 215.714H424.239C426.217 215.457 430.332 213.806 431.401 209.347C434.738 195.424 439.845 171.452 445.724 152.039C450.431 128.494 461.889 118.281 441.223 118.281C417.619 118.282 404.391 203.366 404.391 209.347C404.391 214.132 409.302 215.585 411.757 215.714Z" fill="#E8A660"/>
<rect x="48.7031" y="185.797" width="356.04" height="30.0975" rx="4.81937" fill="#D08C47"/>
<path d="M226.711 167.142V175.405C226.711 176.032 227.22 176.54 227.847 176.539L403.638 176.152C404.246 176.151 404.748 175.67 404.745 175.063C404.727 171.636 403.889 169.55 402.275 169.017L383.554 163.469C383.45 163.438 383.341 163.422 383.232 163.422H230.197C227.736 163.579 226.848 165.967 226.711 167.142Z" fill="#E8A660"/>
<mask id="path-17-inside-1_15_144" fill="white">
<path d="M226.711 173.176C226.711 170.984 228.488 169.207 230.68 169.207H400.762C402.954 169.207 404.731 170.984 404.731 173.176V188.004C404.731 190.196 402.954 191.973 400.762 191.973H230.68C228.488 191.973 226.711 190.196 226.711 188.004V173.176Z"/>
</mask>
<path d="M226.711 173.176C226.711 170.984 228.488 169.207 230.68 169.207H400.762C402.954 169.207 404.731 170.984 404.731 173.176V188.004C404.731 190.196 402.954 191.973 400.762 191.973H230.68C228.488 191.973 226.711 190.196 226.711 188.004V173.176Z" fill="#E8A660"/>
<path d="M226.711 173.176C226.711 170.827 228.615 168.924 230.963 168.924H400.478C402.827 168.924 404.731 170.827 404.731 173.176C404.731 171.141 402.954 169.491 400.762 169.491H230.68C228.488 169.491 226.711 171.141 226.711 173.176ZM404.731 191.973H226.711H404.731ZM226.711 191.973V169.207V191.973ZM404.731 169.207V191.973V169.207Z" fill="#FBC58C" mask="url(#path-17-inside-1_15_144)"/>
<path d="M226.742 167.142V175.405C226.742 176.032 226.233 176.54 225.606 176.539L49.8146 176.152C49.2071 176.151 48.7047 175.67 48.7079 175.063C48.7262 171.636 49.5644 169.55 51.1777 169.017L69.899 163.469C70.0036 163.438 70.1121 163.422 70.2212 163.422H223.256C225.717 163.579 226.605 165.967 226.742 167.142Z" fill="#E8A660"/>
<mask id="path-20-inside-2_15_144" fill="white">
<path d="M226.742 173.176C226.742 170.984 224.965 169.207 222.773 169.207H52.6911C50.4992 169.207 48.7222 170.984 48.7222 173.176V188.004C48.7222 190.196 50.4992 191.973 52.6911 191.973H222.773C224.965 191.973 226.742 190.196 226.742 188.004V173.176Z"/>
</mask>
<path d="M226.742 173.176C226.742 170.984 224.965 169.207 222.773 169.207H52.6911C50.4992 169.207 48.7222 170.984 48.7222 173.176V188.004C48.7222 190.196 50.4992 191.973 52.6911 191.973H222.773C224.965 191.973 226.742 190.196 226.742 188.004V173.176Z" fill="#E8A660"/>
<path d="M226.742 173.176C226.742 170.827 224.838 168.924 222.49 168.924H52.9746C50.6261 168.924 48.7222 170.827 48.7222 173.176C48.7222 171.141 50.4992 169.491 52.6911 169.491H222.773C224.965 169.491 226.742 171.141 226.742 173.176ZM48.7222 191.973H226.742H48.7222ZM226.742 191.973V169.207V191.973ZM48.7222 169.207V191.973V169.207Z" fill="#FBC58C" mask="url(#path-20-inside-2_15_144)"/>
<g filter="url(#filter0_d_15_144)">
<path d="M76.1407 87.0175C71.5572 91.0305 64.1363 131.006 60.9987 150.492C59.3618 151.264 55.5149 153.965 53.2232 158.596C50.9314 163.226 58.2705 163.097 62.2265 162.454C64.2727 163.805 137.936 164.962 143.461 167.085C147.881 168.782 147.349 162.004 146.53 158.403C149.599 155.702 160.444 108.433 162.695 101.873C164.496 96.6256 154.988 97.1144 150.009 98.0147C134.867 86.8246 87.3948 84.5094 87.1902 83.7377C86.9856 82.966 80.0285 79.4931 77.3684 79.3002C75.2403 79.1459 75.6632 84.3808 76.1407 87.0175Z" fill="#002269"/>
<path d="M67.5217 115.951C66.294 120.581 64.1363 131.195 60.9987 150.682C59.3618 151.453 55.5149 154.155 53.2232 158.785C50.9314 163.415 58.2705 163.287 62.2265 162.644C64.2727 163.994 137.936 165.152 143.461 167.274C147.881 168.972 147.349 162.193 146.53 158.592C149.599 155.891 160.444 108.622 162.695 102.063C164.496 96.815 154.988 97.3037 150.009 98.2041C142.004 91.834 130.75 90.8694 130.545 90.0977C114.646 120.504 81.6323 120.645 67.5217 115.951Z" fill="#001E5C"/>
<path d="M146.659 158.3C149.728 155.599 159.807 111.321 161.853 104.761C158.92 102.575 153.018 100.957 152.363 111.607C151.545 124.919 138.499 152.515 143.589 166.982C148.009 168.679 147.477 161.901 146.659 158.3Z" fill="#001644"/>
</g>
<path d="M159.711 173.62C159.711 162.152 183.091 160.556 197.38 161.372C199.977 161.493 198.678 166.271 197.38 166.271C196.081 166.271 164.907 166.271 164.907 173.62C164.907 180.968 201.276 180.619 201.276 182.193C201.276 182.64 159.711 184.123 159.711 173.62Z" fill="#8E4747"/>
<path d="M307.435 21.418C282.495 12.6 268.467 25.9087 264.57 33.6652L267.168 85.1036C317.826 98.5755 326.918 71.6316 329.516 66.7327C332.114 61.8339 338.609 32.4405 307.435 21.418Z" fill="#E3C795"/>
<path d="M163.256 8.70577C189.873 7.7679 197.229 29.5791 198.328 38.0992L184.357 81.3741C131.78 79.0669 130.784 49.1216 130.784 45.4474C130.784 39.9703 129.986 9.87811 163.256 8.70577Z" fill="#E3C795"/>
<g filter="url(#filter1_i_15_144)">
<path d="M303.558 30.5306C282.388 23.7741 270.48 33.9714 267.172 39.9146L269.377 79.3275C312.379 89.6499 320.097 69.0051 322.303 65.2515C324.508 61.4979 330.021 38.9762 303.558 30.5306Z" fill="#E8B6B6"/>
</g>
<g filter="url(#filter2_i_15_144)">
<path d="M168.101 18.7596C190.451 18.655 190.669 41.2702 191.816 47.8943L184.182 75.239C139.924 72.2239 138.683 50.4101 138.683 46.119C138.683 41.7707 140.164 18.8904 168.101 18.7596Z" fill="#E8B6B6"/>
</g>
<path d="M210.561 172.414H189.778C189.778 167.515 194.974 167.515 193.675 166.29C192.376 165.065 181.985 161.391 180.686 149.144C179.647 139.346 190.644 136.08 196.273 135.672H200.17V158.942C207.444 158.942 210.128 167.923 210.561 172.414Z" fill="#E3C795"/>
<rect x="192.922" y="168.141" width="3.68972" height="3.47895" rx="0.851989" fill="#FDE8D7"/>
<rect x="197.844" y="168.141" width="3.68972" height="3.47895" rx="0.851989" fill="#FDE8D7"/>
<rect x="203.984" y="168.141" width="3.68972" height="3.47895" rx="0.851989" fill="#FDE8D7"/>
<path d="M245.798 172.414H266.581C266.581 167.515 261.385 167.515 262.684 166.29C263.983 165.065 274.375 161.391 275.673 149.144C276.713 139.346 265.715 136.08 260.086 135.672H256.19V158.942C248.916 158.942 246.231 167.923 245.798 172.414Z" fill="#E3C795"/>
<rect width="3.68972" height="3.47895" rx="0.851989" transform="matrix(-1 0 0 1 263.445 168.141)" fill="#FDE8D7"/>
<rect width="3.68972" height="3.47895" rx="0.851989" transform="matrix(-1 0 0 1 258.531 168.141)" fill="#FDE8D7"/>
<rect width="3.68972" height="3.47895" rx="0.851989" transform="matrix(-1 0 0 1 252.375 168.141)" fill="#FDE8D7"/>
<path fill-rule="evenodd" clip-rule="evenodd" d="M203.474 96.8125C200.273 115.592 195.244 154.864 200.73 161.723C206.217 168.581 212.161 171.929 214.447 172.745H228.164V96.8125H203.474ZM252.857 96.8125C256.058 115.592 261.088 154.864 255.601 161.723C250.114 168.581 244.17 171.929 241.884 172.745H228.167V96.8125H252.857Z" fill="#E3C795"/>
<path fill-rule="evenodd" clip-rule="evenodd" d="M203.474 96.8125C200.273 115.592 195.244 154.864 200.73 161.723C206.217 168.581 212.161 171.929 214.447 172.745H228.164V96.8125H203.474ZM252.857 96.8125C256.058 115.592 261.088 154.864 255.601 161.723C250.114 168.581 244.17 171.929 241.884 172.745H228.167V96.8125H252.857Z" fill="url(#paint0_linear_15_144)" fill-opacity="0.2"/>
<g filter="url(#filter3_i_15_144)">
<path fill-rule="evenodd" clip-rule="evenodd" d="M205.515 99.2578C202.66 116.825 198.174 153.564 203.068 159.98C207.962 166.396 213.265 169.528 215.304 170.292H229.464H229.467H241.7C243.739 169.528 249.041 166.396 253.935 159.98C258.83 153.564 254.343 116.825 251.488 99.2578H229.467H229.464H205.515Z" fill="#FDE8D7"/>
</g>
<g filter="url(#filter4_i_15_144)">
<path d="M196.127 123.904C193.553 114.197 198.272 100.647 200.953 95.0859L208.996 96.6027C205.242 103.175 200.953 120.112 207.387 122.387C220.256 126.937 228.299 114.803 226.69 119.354C223.433 128.567 199.344 136.038 196.127 123.904Z" fill="#E3C795"/>
</g>
<path d="M207.065 100.3C206.573 100.3 201.53 99.9132 199.07 99.7199L199.685 97.9805L207.68 99.1401C207.68 99.5267 207.557 100.3 207.065 100.3Z" fill="#D8B881"/>
<g filter="url(#filter5_i_15_144)">
<path d="M256.904 123.904C259.478 114.197 254.76 100.647 252.079 95.0859L244.036 96.6027C247.789 103.175 252.079 120.112 245.644 122.387C232.775 126.937 224.732 114.803 226.341 119.354C229.598 128.567 253.687 136.038 256.904 123.904Z" fill="#E3C795"/>
</g>
<path d="M245.81 100.3C245.81 100.3 251.345 99.9132 253.805 99.7199L252.575 97.9805L245.195 98.5603C245.195 98.9468 245.81 100.3 245.81 100.3Z" fill="#D8B881"/>
<path d="M187.556 37.7134C188.554 30.6604 194.042 25.087 201.079 23.9812L225.688 20.1139C227.354 19.8521 229.051 19.8521 230.717 20.1139L254.89 23.9125C262.133 25.0508 267.708 30.9131 268.481 38.2043L273.065 81.4212C274.079 90.9884 266.58 99.3257 256.959 99.3257H197.492C187.645 99.3257 180.076 90.6116 181.455 80.8616L187.556 37.7134Z" fill="#FDE8D7"/>
<path fill-rule="evenodd" clip-rule="evenodd" d="M200.526 23.9482C193.485 25.0325 187.979 30.591 186.961 37.6426L180.841 80.0542C179.941 86.293 182.708 92.1157 187.396 95.5072C184.157 92.3166 182.73 87.3865 184.45 82.6117C185.765 78.9585 188.734 76.1455 192.453 75.0298L222.607 65.9835C225.559 65.0978 228.703 65.0729 231.669 65.9119L262.918 74.7511C267.374 76.0114 270.751 79.6563 271.67 84.1949C272.112 86.3799 271.951 88.5241 271.314 90.4729C272.974 87.6079 273.778 84.2013 273.391 80.6248L268.793 38.1444C268.004 30.8493 262.408 24.9963 255.156 23.8795L230.529 20.0871C228.896 19.8355 227.233 19.8355 225.599 20.0871L200.526 23.9482Z" fill="#E3C795"/>
<path d="M236.219 64.9321C236.219 66.8535 232.585 69.5707 228.102 69.5707C223.619 69.5707 219.984 66.8535 219.984 64.9321C219.984 63.0107 223.619 61.4531 228.102 61.4531C232.585 61.4531 236.219 63.0107 236.219 64.9321Z" fill="#4E4949"/>
<path d="M235.961 76.5312C235.961 81.0145 232.106 84.6488 227.352 84.6488C222.597 84.6488 218.742 81.0145 218.742 76.5312" stroke="#4E4949" stroke-width="1.19278" stroke-linecap="round"/>
<ellipse cx="4.89839" cy="2.91314" rx="4.89839" ry="2.91314" transform="matrix(0.964581 -0.263786 0.294014 0.955801 198.398 66.3477)" fill="#E39D9D"/>
<ellipse cx="4.89839" cy="2.91314" rx="4.89839" ry="2.91314" transform="matrix(-0.964581 -0.263786 -0.294014 0.955801 258.195 66.3633)" fill="#E39D9D"/>
<ellipse cx="8.82403" cy="8.43047" rx="8.82403" ry="8.43047" transform="matrix(0.948266 -0.317478 0.352429 0.935838 192.93 46.8633)" fill="white"/>
<path fill-rule="evenodd" clip-rule="evenodd" d="M207.273 58.0573C210.623 56.9356 212.375 53.4653 211.185 50.3063C209.996 47.1473 206.315 45.4957 202.965 46.6174C202.008 46.9376 201.182 47.4493 200.517 48.0905C201.346 48.1688 202.093 48.6849 202.39 49.4734C202.8 50.5627 202.196 51.7594 201.04 52.1462C200.204 52.4262 199.308 52.2051 198.722 51.6484C198.613 52.5392 198.713 53.4665 199.053 54.3684C200.242 57.5274 203.923 59.179 207.273 58.0573Z" fill="#393939"/>
<ellipse cx="8.82403" cy="8.43047" rx="8.82403" ry="8.43047" transform="matrix(0.948266 -0.317478 0.352429 0.935838 238.188 46.8633)" fill="white"/>
<path fill-rule="evenodd" clip-rule="evenodd" d="M250.265 58.0573C253.616 56.9356 255.367 53.4653 254.178 50.3063C252.988 47.1473 249.307 45.4957 245.957 46.6174C245.001 46.9376 244.174 47.4493 243.51 48.0905C244.338 48.1688 245.085 48.6849 245.382 49.4734C245.792 50.5627 245.188 51.7594 244.033 52.1462C243.196 52.4262 242.3 52.2051 241.714 51.6484C241.605 52.5392 241.705 53.4665 242.045 54.3684C243.234 57.5274 246.915 59.179 250.265 58.0573Z" fill="#393939"/>
<path d="M194.046 42.7649C195.851 40.4917 200.907 36.9665 206.694 41.0513" stroke="#AE8D52" stroke-width="0.78238" stroke-linecap="round"/>
<path d="M262.032 42.7649C260.227 40.4917 255.171 36.9665 249.384 41.0513" stroke="#AE8D52" stroke-width="0.78238" stroke-linecap="round"/>
<defs>
<filter id="filter0_d_15_144" x="52.7891" y="79.2969" width="111.55" height="89.3801" filterUnits="userSpaceOnUse" color-interpolation-filters="sRGB">
<feFlood flood-opacity="0" result="BackgroundImageFix"/>
<feColorMatrix in="SourceAlpha" type="matrix" values="0 0 0 0 0 0 0 0 0 0 0 0 0 0 0 0 0 0 127 0" result="hardAlpha"/>
<feOffset dx="1.41746" dy="1.13397"/>
<feComposite in2="hardAlpha" operator="out"/>
<feColorMatrix type="matrix" values="0 0 0 0 0 0 0 0 0 0 0 0 0 0 0 0 0 0 0.25 0"/>
<feBlend mode="normal" in2="BackgroundImageFix" result="effect1_dropShadow_15_144"/>
<feBlend mode="normal" in="SourceGraphic" in2="effect1_dropShadow_15_144" result="shape"/>
</filter>
<filter id="filter1_i_15_144" x="267.172" y="28.3008" width="57.1562" height="53.8867" filterUnits="userSpaceOnUse" color-interpolation-filters="sRGB">
<feFlood flood-opacity="0" result="BackgroundImageFix"/>
<feBlend mode="normal" in="SourceGraphic" in2="BackgroundImageFix" result="shape"/>
<feColorMatrix in="SourceAlpha" type="matrix" values="0 0 0 0 0 0 0 0 0 0 0 0 0 0 0 0 0 0 127 0" result="hardAlpha"/>
<feOffset dy="3.59918"/>
<feComposite in2="hardAlpha" operator="arithmetic" k2="-1" k3="1"/>
<feColorMatrix type="matrix" values="0 0 0 0 0.890196 0 0 0 0 0.596078 0 0 0 0 0.596078 0 0 0 1 0"/>
<feBlend mode="normal" in2="shape" result="effect1_innerShadow_15_144"/>
</filter>
<filter id="filter2_i_15_144" x="138.68" y="18.7578" width="53.1328" height="56.4805" filterUnits="userSpaceOnUse" color-interpolation-filters="sRGB">
<feFlood flood-opacity="0" result="BackgroundImageFix"/>
<feBlend mode="normal" in="SourceGraphic" in2="BackgroundImageFix" result="shape"/>
<feColorMatrix in="SourceAlpha" type="matrix" values="0 0 0 0 0 0 0 0 0 0 0 0 0 0 0 0 0 0 127 0" result="hardAlpha"/>
<feOffset dx="-1.79959" dy="3.59918"/>
<feComposite in2="hardAlpha" operator="arithmetic" k2="-1" k3="1"/>
<feColorMatrix type="matrix" values="0 0 0 0 0.891667 0 0 0 0 0.594444 0 0 0 0 0.594444 0 0 0 1 0"/>
<feBlend mode="normal" in2="shape" result="effect1_innerShadow_15_144"/>
</filter>
<filter id="filter3_i_15_144" x="200.891" y="99.2578" width="55.2188" height="71.0352" filterUnits="userSpaceOnUse" color-interpolation-filters="sRGB">
<feFlood flood-opacity="0" result="BackgroundImageFix"/>
<feBlend mode="normal" in="SourceGraphic" in2="BackgroundImageFix" result="shape"/>
<feColorMatrix in="SourceAlpha" type="matrix" values="0 0 0 0 0 0 0 0 0 0 0 0 0 0 0 0 0 0 127 0" result="hardAlpha"/>
<feOffset dy="0.851989"/>
<feComposite in2="hardAlpha" operator="arithmetic" k2="-1" k3="1"/>
<feColorMatrix type="matrix" values="0 0 0 0 0.970833 0 0 0 0 0.838941 0 0 0 0 0.73217 0 0 0 1 0"/>
<feBlend mode="normal" in2="shape" result="effect1_innerShadow_15_144"/>
</filter>
<filter id="filter4_i_15_144" x="195.383" y="95.0859" width="31.5078" height="35.1406" filterUnits="userSpaceOnUse" color-interpolation-filters="sRGB">
<feFlood flood-opacity="0" result="BackgroundImageFix"/>
<feBlend mode="normal" in="SourceGraphic" in2="BackgroundImageFix" result="shape"/>
<feColorMatrix in="SourceAlpha" type="matrix" values="0 0 0 0 0 0 0 0 0 0 0 0 0 0 0 0 0 0 127 0" result="hardAlpha"/>
<feOffset dy="0.851989"/>
<feComposite in2="hardAlpha" operator="arithmetic" k2="-1" k3="1"/>
<feColorMatrix type="matrix" values="0 0 0 0 0.845833 0 0 0 0 0.723115 0 0 0 0 0.503976 0 0 0 1 0"/>
<feBlend mode="normal" in2="shape" result="effect1_innerShadow_15_144"/>
</filter>
<filter id="filter5_i_15_144" x="226.141" y="95.0859" width="31.5078" height="35.1406" filterUnits="userSpaceOnUse" color-interpolation-filters="sRGB">
<feFlood flood-opacity="0" result="BackgroundImageFix"/>
<feBlend mode="normal" in="SourceGraphic" in2="BackgroundImageFix" result="shape"/>
<feColorMatrix in="SourceAlpha" type="matrix" values="0 0 0 0 0 0 0 0 0 0 0 0 0 0 0 0 0 0 127 0" result="hardAlpha"/>
<feOffset dy="0.851989"/>
<feComposite in2="hardAlpha" operator="arithmetic" k2="-1" k3="1"/>
<feColorMatrix type="matrix" values="0 0 0 0 0.845833 0 0 0 0 0.723115 0 0 0 0 0.503976 0 0 0 1 0"/>
<feBlend mode="normal" in2="shape" result="effect1_innerShadow_15_144"/>
</filter>
<linearGradient id="paint0_linear_15_144" x1="228.166" y1="96.8125" x2="228.54" y2="172.783" gradientUnits="userSpaceOnUse">
<stop stop-color="#E3C795"/>
<stop offset="1" stop-color="#C2A674"/>
</linearGradient>
</defs>
</svg>
